# xmcd
#
# Track frame offsets:
#	150
#	14982
#	27725
#	40377
#	52485
#	64575
#	81870
#	93582
#	106575
#	118630
#	129980
#	141130
#	155185
#	165062
#	184090
#	196552
#	208932
#	222612
#	236712
#	250465
#
# Disc length: 3520
#
# Revision: 2
# Processed by: cddbd v1.5.1PL0 Copyright (c) Steve Scherf et al.
# Submitted via: CDex 1.50
# Normalized: r0:DSETVAR1,TSWAP
#
DISCID=2d0dbe14
DTITLE=Various Artist - Best The Blues
DYEAR=1993
DGENRE=Blues
TTITLE0=Elmore James - Dust My Broom
TTITLE1=B.B. king - Everyday A Have The Blues
TTITLE2=Albert King - Born Under A Bad Sign
TTITLE3=Freddy King - Hide Away
TTITLE4=Little Milton - We're Gonna Make It
TTITLE5=Little Johnny Taylor - Part Time Love
TTITLE6=Bobby Bland - Turn On Your Love Light
TTITLE7=Muddy Waters - Got My Mojo Working
TTITLE8=Little Walter - My Babe
TTITLE9=John Lee Hooker - No Shoes
TTITLE10=Howlin' Wolf - The Red Rooster
TTITLE11=Otis Rush - I Can't Quit You Baby
TTITLE12=Buddy Guy - First Time I Met The Blues
TTITLE13=Magic Sam - Sweet Home Chicago
TTITLE14=Johnny Otis - Willie And The Hand Jive
TTITLE15=Louis Jordan - Let The Good Times Roll
TTITLE16=Joe Turner - Shake Rattle and Roll
TTITLE17=Lowell Fulson - Tramp
TTITLE18=Lightnin' Hopkins - Mojo Hand
TTITLE19=T-Bone Walker - Call It Stormy Monday But Tuesday Is Just As Bad
EXTD=YEAR: 1993
EXTT0=
EXTT1=
EXTT2=
EXTT3=
EXTT4=
EXTT5=
EXTT6=
EXTT7=
EXTT8=
EXTT9=
EXTT10=
EXTT11=
EXTT12=
EXTT13=
EXTT14=
EXTT15=
EXTT16=
EXTT17=
EXTT18=
EXTT19=
PLAYORDER=
